<?xml version="1.0" standalone="no"?>
<!DOCTYPE svg PUBLIC "-//W3C//DTD SVG 20010904//EN"
 "http://www.w3.org/TR/2001/REC-SVG-20010904/DTD/svg10.dtd">
<svg version="1.0" xmlns="http://www.w3.org/2000/svg"
 width="401.000000pt" height="401.000000pt" viewBox="0 0 401.000000 401.000000"
 preserveAspectRatio="xMidYMid meet">
<metadata>
Created by potrace 1.14, written by Peter Selinger 2001-2017
</metadata>
<g transform="translate(0.000000,401.000000) scale(0.100000,-0.100000)"
fill="#000000" stroke="none">
<path d="M1692 3603 c-31 -40 -52 -76 -52 -90 0 -6 697 -10 707 -4 7 4 -28 66
-55 95 l-32 36 -269 0 -269 0 -30 -37z"/>
<path d="M1670 3420 c-4 -8 -11 -40 -15 -70 -4 -30 -9 -64 -11 -75 -3 -11 -7
-40 -10 -65 -6 -51 -12 -94 -19 -130 -3 -14 -7 -42 -10 -62 -2 -21 -6 -53 -9
-70 -3 -18 -8 -51 -11 -73 -3 -22 -10 -67 -15 -100 -5 -33 -12 -82 -15 -110
-4 -27 -8 -57 -10 -65 -2 -8 -7 -39 -10 -69 -4 -30 -8 -62 -10 -71 -2 -9 -6
-41 -10 -70 -4 -29 -8 -62 -11 -73 -2 -10 -6 -45 -10 -76 -3 -31 -8 -58 -9
-61 -2 -3 -6 -34 -10 -70 -4 -36 -8 -72 -10 -80 -1 -8 -6 -40 -10 -70 -4 -30
-9 -64 -11 -75 -2 -11 -11 -74 -20 -140 -14 -112 -20 -153 -29 -215 -2 -14 -9
-63 -15 -110 -6 -47 -12 -98 -15 -115 -2 -16 -7 -52 -10 -80 -4 -27 -9 -61
-11 -75 -7 -52 -53 -438 -59 -500 l-6 -65 78 -47 c202 -122 411 -178 647 -172
162 4 236 16 386 61 117 35 254 97 323 146 33 23 34 -3 -8 282 -8 61 -17 124
-20 140 -2 17 -16 111 -30 210 -14 99 -28 198 -31 220 -3 22 -7 47 -9 55 -2 8
-7 42 -10 75 -4 32 -8 62 -10 65 -2 3 -6 32 -10 64 -3 33 -8 62 -9 65 -2 3 -7
37 -11 76 -4 38 -8 72 -10 75 -2 3 -6 34 -10 70 -4 36 -9 67 -10 70 -2 3 -7
35 -10 70 -4 36 -8 67 -10 70 -2 3 -6 32 -9 65 -4 33 -8 67 -11 75 -2 8 -7 38
-10 65 -12 96 -15 119 -20 144 -2 14 -11 73 -19 131 -8 58 -17 121 -20 140 -3
19 -10 70 -16 113 -7 43 -13 88 -15 100 -5 27 -44 304 -52 367 -3 25 -7 47 -9
49 -1 1 -150 4 -329 5 -282 1 -328 -1 -335 -14z"/>
</g>
</svg>
